<svg width="112" height="49" viewBox="0 0 112 49" fill="none" xmlns="http://www.w3.org/2000/svg">
<path d="M36.9794 7.5V1.57H34.7094V0.3H40.6094V1.57H38.3394V7.5H36.9794ZM40.9148 7.5V2.1H42.1148V3.42L41.9848 3.25C42.0548 3.06333 42.1482 2.89333 42.2648 2.74C42.3815 2.58667 42.5248 2.46 42.6948 2.36C42.8248 2.28 42.9665 2.21833 43.1198 2.175C43.2732 2.12833 43.4315 2.1 43.5948 2.09C43.7582 2.07667 43.9215 2.08 44.0848 2.1V3.37C43.9348 3.32333 43.7598 3.30833 43.5598 3.325C43.3632 3.33833 43.1848 3.38333 43.0248 3.46C42.8648 3.53333 42.7298 3.63167 42.6198 3.755C42.5098 3.875 42.4265 4.01833 42.3698 4.185C42.3132 4.34833 42.2848 4.53333 42.2848 4.74V7.5H40.9148ZM46.4285 7.65C46.0418 7.65 45.7135 7.57667 45.4435 7.43C45.1768 7.28 44.9735 7.08167 44.8335 6.835C44.6968 6.585 44.6285 6.31 44.6285 6.01C44.6285 5.76 44.6668 5.53167 44.7435 5.325C44.8202 5.11833 44.9435 4.93667 45.1135 4.78C45.2868 4.62 45.5185 4.48667 45.8085 4.38C46.0085 4.30667 46.2468 4.24167 46.5235 4.185C46.8002 4.12833 47.1135 4.075 47.4635 4.025C47.8135 3.97167 48.1985 3.91333 48.6185 3.85L48.1285 4.12C48.1285 3.8 48.0518 3.565 47.8985 3.415C47.7452 3.265 47.4885 3.19 47.1285 3.19C46.9285 3.19 46.7202 3.23833 46.5035 3.335C46.2868 3.43167 46.1352 3.60333 46.0485 3.85L44.8185 3.46C44.9552 3.01333 45.2118 2.65 45.5885 2.37C45.9652 2.09 46.4785 1.95 47.1285 1.95C47.6052 1.95 48.0285 2.02333 48.3985 2.17C48.7685 2.31667 49.0485 2.57 49.2385 2.93C49.3452 3.13 49.4085 3.33 49.4285 3.53C49.4485 3.73 49.4585 3.95333 49.4585 4.2V7.5H48.2685V6.39L48.4385 6.62C48.1752 6.98333 47.8902 7.24667 47.5835 7.41C47.2802 7.57 46.8952 7.65 46.4285 7.65ZM46.7185 6.58C46.9685 6.58 47.1785 6.53667 47.3485 6.45C47.5218 6.36 47.6585 6.25833 47.7585 6.145C47.8618 6.03167 47.9318 5.93667 47.9685 5.86C48.0385 5.71333 48.0785 5.54333 48.0885 5.35C48.1018 5.15333 48.1085 4.99 48.1085 4.86L48.5085 4.96C48.1052 5.02667 47.7785 5.08333 47.5285 5.13C47.2785 5.17333 47.0768 5.21333 46.9235 5.25C46.7702 5.28667 46.6352 5.32667 46.5185 5.37C46.3852 5.42333 46.2768 5.48167 46.1935 5.545C46.1135 5.605 46.0535 5.67167 46.0135 5.745C45.9768 5.81833 45.9585 5.9 45.9585 5.99C45.9585 6.11333 45.9885 6.22 46.0485 6.31C46.1118 6.39667 46.2002 6.46333 46.3135 6.51C46.4268 6.55667 46.5618 6.58 46.7185 6.58ZM53.1386 7.65C52.5786 7.65 52.0986 7.525 51.6986 7.275C51.2986 7.025 50.9919 6.685 50.7786 6.255C50.5653 5.825 50.4586 5.34 50.4586 4.8C50.4586 4.25333 50.5686 3.765 50.7886 3.335C51.0119 2.905 51.3253 2.56667 51.7286 2.32C52.1319 2.07333 52.6086 1.95 53.1586 1.95C53.7953 1.95 54.3286 2.11167 54.7586 2.435C55.1919 2.755 55.4686 3.19333 55.5886 3.75L54.2286 4.11C54.1486 3.83 54.0086 3.61167 53.8086 3.455C53.6119 3.29833 53.3886 3.22 53.1386 3.22C52.8519 3.22 52.6169 3.29 52.4336 3.43C52.2503 3.56667 52.1153 3.755 52.0286 3.995C51.9419 4.23167 51.8986 4.5 51.8986 4.8C51.8986 5.27 52.0019 5.65167 52.2086 5.945C52.4186 6.235 52.7286 6.38 53.1386 6.38C53.4453 6.38 53.6786 6.31 53.8386 6.17C53.9986 6.03 54.1186 5.83 54.1986 5.57L55.5886 5.86C55.4353 6.43333 55.1453 6.875 54.7186 7.185C54.2919 7.495 53.7653 7.65 53.1386 7.65ZM56.5787 7.5L56.5887 0.3H57.9687V4.7L59.7987 2.1H61.4787L59.5287 4.8L61.6087 7.5H59.8387L57.9687 4.9V7.5H56.5787ZM62.2063 1.35V0.15H63.5663V1.35H62.2063ZM62.2063 7.5V2.1H63.5663V7.5H62.2063ZM68.7452 7.5V4.95C68.7452 4.82667 68.7386 4.67 68.7252 4.48C68.7119 4.28667 68.6702 4.09333 68.6002 3.9C68.5302 3.70667 68.4152 3.545 68.2552 3.415C68.0986 3.285 67.8752 3.22 67.5852 3.22C67.4686 3.22 67.3436 3.23833 67.2102 3.275C67.0769 3.31167 66.9519 3.38333 66.8352 3.49C66.7186 3.59333 66.6219 3.74667 66.5452 3.95C66.4719 4.15333 66.4352 4.42333 66.4352 4.76L65.6552 4.39C65.6552 3.96333 65.7419 3.56333 65.9152 3.19C66.0886 2.81667 66.3486 2.515 66.6952 2.285C67.0452 2.055 67.4852 1.94 68.0152 1.94C68.4386 1.94 68.7836 2.01167 69.0502 2.155C69.3169 2.29833 69.5236 2.48 69.6702 2.7C69.8202 2.92 69.9269 3.15 69.9902 3.39C70.0536 3.62667 70.0919 3.84333 70.1052 4.04C70.1186 4.23667 70.1252 4.38 70.1252 4.47V7.5H68.7452ZM65.0552 7.5V2.1H66.2652V3.89H66.4352V7.5H65.0552ZM73.7327 10.05C73.426 10.05 73.1343 10 72.8577 9.9C72.581 9.80333 72.3327 9.66667 72.1127 9.49C71.896 9.31667 71.7193 9.11333 71.5827 8.88L72.8427 8.27C72.9293 8.43 73.0527 8.55167 73.2127 8.635C73.376 8.71833 73.5527 8.76 73.7427 8.76C73.946 8.76 74.1377 8.725 74.3177 8.655C74.4977 8.58833 74.641 8.48667 74.7477 8.35C74.8577 8.21667 74.9093 8.05 74.9027 7.85V6.28H75.0727V2.1H76.2627V7.87C76.2627 8.00333 76.256 8.12833 76.2427 8.245C76.2327 8.365 76.2127 8.48333 76.1827 8.6C76.096 8.93 75.9343 9.20167 75.6977 9.415C75.4643 9.62833 75.1777 9.78667 74.8377 9.89C74.4977 9.99667 74.1293 10.05 73.7327 10.05ZM73.6127 7.65C73.116 7.65 72.681 7.525 72.3077 7.275C71.9343 7.025 71.6427 6.685 71.4327 6.255C71.226 5.825 71.1227 5.34 71.1227 4.8C71.1227 4.25 71.2277 3.76167 71.4377 3.335C71.651 2.905 71.9493 2.56667 72.3327 2.32C72.716 2.07333 73.166 1.95 73.6827 1.95C74.196 1.95 74.6277 2.075 74.9777 2.325C75.3277 2.575 75.5927 2.915 75.7727 3.345C75.9527 3.775 76.0427 4.26 76.0427 4.8C76.0427 5.34 75.951 5.825 75.7677 6.255C75.5877 6.685 75.3177 7.025 74.9577 7.275C74.5977 7.525 74.1493 7.65 73.6127 7.65ZM73.8327 6.44C74.136 6.44 74.3777 6.37167 74.5577 6.235C74.741 6.09833 74.8727 5.90667 74.9527 5.66C75.0327 5.41333 75.0727 5.12667 75.0727 4.8C75.0727 4.47333 75.0327 4.18667 74.9527 3.94C74.8727 3.69333 74.7443 3.50167 74.5677 3.365C74.3943 3.22833 74.166 3.16 73.8827 3.16C73.5793 3.16 73.3293 3.235 73.1327 3.385C72.9393 3.53167 72.796 3.73 72.7027 3.98C72.6093 4.22667 72.5627 4.5 72.5627 4.8C72.5627 5.10333 72.6077 5.38 72.6977 5.63C72.7877 5.87667 72.926 6.07333 73.1127 6.22C73.2993 6.36667 73.5393 6.44 73.8327 6.44Z" fill="#949494"/>
<path d="M41.7054 29.86C39.9774 29.86 38.4854 29.484 37.2294 28.732C35.9814 27.98 35.0174 26.928 34.3374 25.576C33.6654 24.224 33.3294 22.652 33.3294 20.86C33.3294 19.068 33.6654 17.496 34.3374 16.144C35.0174 14.792 35.9814 13.74 37.2294 12.988C38.4854 12.236 39.9774 11.86 41.7054 11.86C43.6894 11.86 45.3534 12.352 46.6974 13.336C48.0494 14.32 49.0014 15.652 49.5534 17.332L46.2654 18.244C45.9454 17.196 45.4054 16.384 44.6454 15.808C43.8854 15.224 42.9054 14.932 41.7054 14.932C40.6094 14.932 39.6934 15.176 38.9574 15.664C38.2294 16.152 37.6814 16.84 37.3134 17.728C36.9454 18.616 36.7614 19.66 36.7614 20.86C36.7614 22.06 36.9454 23.104 37.3134 23.992C37.6814 24.88 38.2294 25.568 38.9574 26.056C39.6934 26.544 40.6094 26.788 41.7054 26.788C42.9054 26.788 43.8854 26.496 44.6454 25.912C45.4054 25.328 45.9454 24.516 46.2654 23.476L49.5534 24.388C49.0014 26.068 48.0494 27.4 46.6974 28.384C45.3534 29.368 43.6894 29.86 41.7054 29.86ZM55.7956 29.86C54.8676 29.86 54.0796 29.684 53.4316 29.332C52.7916 28.972 52.3036 28.496 51.9676 27.904C51.6396 27.304 51.4756 26.644 51.4756 25.924C51.4756 25.324 51.5676 24.776 51.7516 24.28C51.9356 23.784 52.2316 23.348 52.6396 22.972C53.0556 22.588 53.6116 22.268 54.3076 22.012C54.7876 21.836 55.3596 21.68 56.0236 21.544C56.6876 21.408 57.4396 21.28 58.2796 21.16C59.1196 21.032 60.0436 20.892 61.0516 20.74L59.8756 21.388C59.8756 20.62 59.6916 20.056 59.3236 19.696C58.9556 19.336 58.3396 19.156 57.4756 19.156C56.9956 19.156 56.4956 19.272 55.9756 19.504C55.4556 19.736 55.0916 20.148 54.8836 20.74L51.9316 19.804C52.2596 18.732 52.8756 17.86 53.7796 17.188C54.6836 16.516 55.9156 16.18 57.4756 16.18C58.6196 16.18 59.6356 16.356 60.5236 16.708C61.4116 17.06 62.0836 17.668 62.5396 18.532C62.7956 19.012 62.9476 19.492 62.9956 19.972C63.0436 20.452 63.0676 20.988 63.0676 21.58V29.5H60.2116V26.836L60.6196 27.388C59.9876 28.26 59.3036 28.892 58.5676 29.284C57.8396 29.668 56.9156 29.86 55.7956 29.86ZM56.4916 27.292C57.0916 27.292 57.5956 27.188 58.0036 26.98C58.4196 26.764 58.7476 26.52 58.9876 26.248C59.2356 25.976 59.4036 25.748 59.4916 25.564C59.6596 25.212 59.7556 24.804 59.7796 24.34C59.8116 23.868 59.8276 23.476 59.8276 23.164L60.7876 23.404C59.8196 23.564 59.0356 23.7 58.4356 23.812C57.8356 23.916 57.3516 24.012 56.9836 24.1C56.6156 24.188 56.2916 24.284 56.0116 24.388C55.6916 24.516 55.4316 24.656 55.2316 24.808C55.0396 24.952 54.8956 25.112 54.7996 25.288C54.7116 25.464 54.6676 25.66 54.6676 25.876C54.6676 26.172 54.7396 26.428 54.8836 26.644C55.0356 26.852 55.2476 27.012 55.5196 27.124C55.7916 27.236 56.1156 27.292 56.4916 27.292ZM72.5478 29.86C71.2598 29.86 70.1838 29.56 69.3198 28.96C68.4558 28.36 67.8038 27.544 67.3638 26.512C66.9318 25.48 66.7158 24.316 66.7158 23.02C66.7158 21.724 66.9318 20.56 67.3638 19.528C67.7958 18.496 68.4318 17.68 69.2718 17.08C70.1118 16.48 71.1478 16.18 72.3798 16.18C73.6198 16.18 74.6998 16.476 75.6198 17.068C76.5398 17.66 77.2518 18.472 77.7558 19.504C78.2678 20.528 78.5238 21.7 78.5238 23.02C78.5238 24.316 78.2718 25.48 77.7678 26.512C77.2718 27.544 76.5758 28.36 75.6798 28.96C74.7838 29.56 73.7398 29.86 72.5478 29.86ZM66.1638 29.5V12.22H69.4518V20.62H69.0438V29.5H66.1638ZM72.0198 26.956C72.7238 26.956 73.2998 26.78 73.7478 26.428C74.1958 26.076 74.5278 25.604 74.7438 25.012C74.9598 24.412 75.0678 23.748 75.0678 23.02C75.0678 22.3 74.9558 21.644 74.7318 21.052C74.5078 20.452 74.1598 19.976 73.6878 19.624C73.2238 19.264 72.6278 19.084 71.8998 19.084C71.2198 19.084 70.6678 19.248 70.2438 19.576C69.8278 19.904 69.5238 20.364 69.3318 20.956C69.1398 21.548 69.0438 22.236 69.0438 23.02C69.0438 23.804 69.1398 24.492 69.3318 25.084C69.5238 25.676 69.8358 26.136 70.2678 26.464C70.7078 26.792 71.2918 26.956 72.0198 26.956Z" fill="black"/>
<path d="M37.6574 45.68C36.7934 45.68 36.0474 45.492 35.4194 45.116C34.7954 44.74 34.3134 44.214 33.9734 43.538C33.6374 42.862 33.4694 42.076 33.4694 41.18C33.4694 40.284 33.6374 39.498 33.9734 38.822C34.3134 38.146 34.7954 37.62 35.4194 37.244C36.0474 36.868 36.7934 36.68 37.6574 36.68C38.6494 36.68 39.4814 36.926 40.1534 37.418C40.8294 37.91 41.3054 38.576 41.5814 39.416L39.9374 39.872C39.7774 39.348 39.5074 38.942 39.1274 38.654C38.7474 38.362 38.2574 38.216 37.6574 38.216C37.1094 38.216 36.6514 38.338 36.2834 38.582C35.9194 38.826 35.6454 39.17 35.4614 39.614C35.2774 40.058 35.1854 40.58 35.1854 41.18C35.1854 41.78 35.2774 42.302 35.4614 42.746C35.6454 43.19 35.9194 43.534 36.2834 43.778C36.6514 44.022 37.1094 44.144 37.6574 44.144C38.2574 44.144 38.7474 43.998 39.1274 43.706C39.5074 43.414 39.7774 43.008 39.9374 42.488L41.5814 42.944C41.3054 43.784 40.8294 44.45 40.1534 44.942C39.4814 45.434 38.6494 45.68 37.6574 45.68ZM47.3185 45.5V42.44C47.3185 42.292 47.3105 42.104 47.2945 41.876C47.2785 41.644 47.2285 41.412 47.1445 41.18C47.0605 40.948 46.9225 40.754 46.7305 40.598C46.5425 40.442 46.2745 40.364 45.9265 40.364C45.7865 40.364 45.6365 40.386 45.4765 40.43C45.3165 40.474 45.1665 40.56 45.0265 40.688C44.8865 40.812 44.7705 40.996 44.6785 41.24C44.5905 41.484 44.5465 41.808 44.5465 42.212L43.6105 41.768C43.6105 41.256 43.7145 40.776 43.9225 40.328C44.1305 39.88 44.4425 39.518 44.8585 39.242C45.2785 38.966 45.8065 38.828 46.4425 38.828C46.9505 38.828 47.3645 38.914 47.6845 39.086C48.0045 39.258 48.2525 39.476 48.4285 39.74C48.6085 40.004 48.7365 40.28 48.8125 40.568C48.8885 40.852 48.9345 41.112 48.9505 41.348C48.9665 41.584 48.9745 41.756 48.9745 41.864V45.5H47.3185ZM42.8905 45.5V36.86H44.3425V41.3H44.5465V45.5H42.8905ZM52.3314 45.68C51.8674 45.68 51.4734 45.592 51.1494 45.416C50.8294 45.236 50.5854 44.998 50.4174 44.702C50.2534 44.402 50.1714 44.072 50.1714 43.712C50.1714 43.412 50.2174 43.138 50.3094 42.89C50.4014 42.642 50.5494 42.424 50.7534 42.236C50.9614 42.044 51.2394 41.884 51.5874 41.756C51.8274 41.668 52.1134 41.59 52.4454 41.522C52.7774 41.454 53.1534 41.39 53.5734 41.33C53.9934 41.266 54.4554 41.196 54.9594 41.12L54.3714 41.444C54.3714 41.06 54.2794 40.778 54.0954 40.598C53.9114 40.418 53.6034 40.328 53.1714 40.328C52.9314 40.328 52.6814 40.386 52.4214 40.502C52.1614 40.618 51.9794 40.824 51.8754 41.12L50.3994 40.652C50.5634 40.116 50.8714 39.68 51.3234 39.344C51.7754 39.008 52.3914 38.84 53.1714 38.84C53.7434 38.84 54.2514 38.928 54.6954 39.104C55.1394 39.28 55.4754 39.584 55.7034 40.016C55.8314 40.256 55.9074 40.496 55.9314 40.736C55.9554 40.976 55.9674 41.244 55.9674 41.54V45.5H54.5394V44.168L54.7434 44.444C54.4274 44.88 54.0854 45.196 53.7174 45.392C53.3534 45.584 52.8914 45.68 52.3314 45.68ZM52.6794 44.396C52.9794 44.396 53.2314 44.344 53.4354 44.24C53.6434 44.132 53.8074 44.01 53.9274 43.874C54.0514 43.738 54.1354 43.624 54.1794 43.532C54.2634 43.356 54.3114 43.152 54.3234 42.92C54.3394 42.684 54.3474 42.488 54.3474 42.332L54.8274 42.452C54.3434 42.532 53.9514 42.6 53.6514 42.656C53.3514 42.708 53.1094 42.756 52.9254 42.8C52.7414 42.844 52.5794 42.892 52.4394 42.944C52.2794 43.008 52.1494 43.078 52.0494 43.154C51.9534 43.226 51.8814 43.306 51.8334 43.394C51.7894 43.482 51.7674 43.58 51.7674 43.688C51.7674 43.836 51.8034 43.964 51.8754 44.072C51.9514 44.176 52.0574 44.256 52.1934 44.312C52.3294 44.368 52.4914 44.396 52.6794 44.396ZM61.9435 45.5V42.44C61.9435 42.292 61.9355 42.104 61.9195 41.876C61.9035 41.644 61.8535 41.412 61.7695 41.18C61.6855 40.948 61.5475 40.754 61.3555 40.598C61.1675 40.442 60.8995 40.364 60.5515 40.364C60.4115 40.364 60.2615 40.386 60.1015 40.43C59.9415 40.474 59.7915 40.56 59.6515 40.688C59.5115 40.812 59.3955 40.996 59.3035 41.24C59.2155 41.484 59.1715 41.808 59.1715 42.212L58.2355 41.768C58.2355 41.256 58.3395 40.776 58.5475 40.328C58.7555 39.88 59.0675 39.518 59.4835 39.242C59.9035 38.966 60.4315 38.828 61.0675 38.828C61.5755 38.828 61.9895 38.914 62.3095 39.086C62.6295 39.258 62.8775 39.476 63.0535 39.74C63.2335 40.004 63.3615 40.28 63.4375 40.568C63.5135 40.852 63.5595 41.112 63.5755 41.348C63.5915 41.584 63.5995 41.756 63.5995 41.864V45.5H61.9435ZM57.5155 45.5V39.02H58.9675V41.168H59.1715V45.5H57.5155ZM67.9284 48.56C67.5604 48.56 67.2104 48.5 66.8784 48.38C66.5464 48.264 66.2484 48.1 65.9844 47.888C65.7244 47.68 65.5124 47.436 65.3484 47.156L66.8604 46.424C66.9644 46.616 67.1124 46.762 67.3044 46.862C67.5004 46.962 67.7124 47.012 67.9404 47.012C68.1844 47.012 68.4144 46.97 68.6304 46.886C68.8464 46.806 69.0184 46.684 69.1464 46.52C69.2784 46.36 69.3404 46.16 69.3324 45.92V44.036H69.5364V39.02H70.9644V45.944C70.9644 46.104 70.9564 46.254 70.9404 46.394C70.9284 46.538 70.9044 46.68 70.8684 46.82C70.7644 47.216 70.5704 47.542 70.2864 47.798C70.0064 48.054 69.6624 48.244 69.2544 48.368C68.8464 48.496 68.4044 48.56 67.9284 48.56ZM67.7844 45.68C67.1884 45.68 66.6664 45.53 66.2184 45.23C65.7704 44.93 65.4204 44.522 65.1684 44.006C64.9204 43.49 64.7964 42.908 64.7964 42.26C64.7964 41.6 64.9224 41.014 65.1744 40.502C65.4304 39.986 65.7884 39.58 66.2484 39.284C66.7084 38.988 67.2484 38.84 67.8684 38.84C68.4844 38.84 69.0024 38.99 69.4224 39.29C69.8424 39.59 70.1604 39.998 70.3764 40.514C70.5924 41.03 70.7004 41.612 70.7004 42.26C70.7004 42.908 70.5904 43.49 70.3704 44.006C70.1544 44.522 69.8304 44.93 69.3984 45.23C68.9664 45.53 68.4284 45.68 67.7844 45.68ZM68.0484 44.228C68.4124 44.228 68.7024 44.146 68.9184 43.982C69.1384 43.818 69.2964 43.588 69.3924 43.292C69.4884 42.996 69.5364 42.652 69.5364 42.26C69.5364 41.868 69.4884 41.524 69.3924 41.228C69.2964 40.932 69.1424 40.702 68.9304 40.538C68.7224 40.374 68.4484 40.292 68.1084 40.292C67.7444 40.292 67.4444 40.382 67.2084 40.562C66.9764 40.738 66.8044 40.976 66.6924 41.276C66.5804 41.572 66.5244 41.9 66.5244 42.26C66.5244 42.624 66.5784 42.956 66.6864 43.256C66.7944 43.552 66.9604 43.788 67.1844 43.964C67.4084 44.14 67.6964 44.228 68.0484 44.228ZM75.6567 45.68C74.9927 45.68 74.4067 45.538 73.8987 45.254C73.3947 44.966 72.9987 44.572 72.7107 44.072C72.4267 43.568 72.2847 42.992 72.2847 42.344C72.2847 41.636 72.4247 41.02 72.7047 40.496C72.9847 39.972 73.3707 39.566 73.8627 39.278C74.3547 38.986 74.9207 38.84 75.5607 38.84C76.2407 38.84 76.8187 39 77.2947 39.32C77.7707 39.64 78.1227 40.09 78.3507 40.67C78.5787 41.25 78.6587 41.932 78.5907 42.716H76.9767V42.116C76.9767 41.456 76.8707 40.982 76.6587 40.694C76.4507 40.402 76.1087 40.256 75.6327 40.256C75.0767 40.256 74.6667 40.426 74.4027 40.766C74.1427 41.102 74.0127 41.6 74.0127 42.26C74.0127 42.864 74.1427 43.332 74.4027 43.664C74.6667 43.992 75.0527 44.156 75.5607 44.156C75.8807 44.156 76.1547 44.086 76.3827 43.946C76.6107 43.806 76.7847 43.604 76.9047 43.34L78.5367 43.808C78.2927 44.4 77.9067 44.86 77.3787 45.188C76.8547 45.516 76.2807 45.68 75.6567 45.68ZM73.5087 42.716V41.504H77.8047V42.716H73.5087Z" fill="#DDB948"/>
<path d="M33.1094 46.25H49.6945V46.55H33.1094V46.25ZM49.6914 46.25H64.3195V46.55H49.6914V46.25ZM64.3164 46.25H79.1007V46.55H64.3164V46.25Z" fill="#DDB948"/>
</svg>
